<svg xmlns="http://www.w3.org/2000/svg" width="1200" height="630" viewBox="0 0 1200 630">
  <defs>
    <linearGradient id="leftFade" x1="0" y1="0" x2="1" y2="0">
      <stop offset="0" stop-color="#030302" stop-opacity="0.98"/>
      <stop offset="0.58" stop-color="#030302" stop-opacity="0.83"/>
      <stop offset="1" stop-color="#030302" stop-opacity="0.18"/>
    </linearGradient>
    <linearGradient id="goldText" x1="0" y1="0" x2="1" y2="1">
      <stop offset="0" stop-color="#f6dda0"/>
      <stop offset="0.52" stop-color="#d4a24a"/>
      <stop offset="1" stop-color="#f4d28a"/>
    </linearGradient>
    <linearGradient id="geminiGradient" x1="0" y1="0" x2="1" y2="1">
      <stop offset="0" stop-color="#4285f4"/>
      <stop offset="0.52" stop-color="#9b72cb"/>
      <stop offset="1" stop-color="#d96570"/>
    </linearGradient>
    <linearGradient id="chipFill" x1="0" y1="0" x2="1" y2="1">
      <stop offset="0" stop-color="#16130b" stop-opacity="0.9"/>
      <stop offset="1" stop-color="#050403" stop-opacity="0.8"/>
    </linearGradient>
    <radialGradient id="goldGlow" cx="0.7" cy="0.38" r="0.5">
      <stop offset="0" stop-color="#f4d28a" stop-opacity="0.22"/>
      <stop offset="0.56" stop-color="#d4a24a" stop-opacity="0.08"/>
      <stop offset="1" stop-color="#030302" stop-opacity="0"/>
    </radialGradient>
    <filter id="softShadow" x="-20%" y="-20%" width="140%" height="140%">
      <feDropShadow dx="0" dy="10" stdDeviation="12" flood-color="#000000" flood-opacity="0.35"/>
    </filter>
    <style>
      .font { font-family: "Avenir Next", "Helvetica Neue", Arial, sans-serif; }
      .smallCaps { font-size: 16px; font-weight: 700; letter-spacing: 5px; text-transform: uppercase; }
      .body { font-size: 28px; font-weight: 500; line-height: 1.28; }
      .chipText { font-size: 18px; font-weight: 700; fill: #f7ead1; }
      .chipSub { font-size: 13px; font-weight: 600; fill: #bca875; letter-spacing: 1px; }
    </style>
  </defs>

  <rect width="1200" height="630" fill="#030302"/>
  <image href="og-newreward-background.png" x="0" y="0" width="1200" height="630" preserveAspectRatio="xMidYMid slice"/>
  <rect width="1200" height="630" fill="url(#leftFade)"/>
  <rect width="1200" height="630" fill="url(#goldGlow)"/>
  <rect x="38" y="36" width="1124" height="558" rx="34" fill="none" stroke="#d4a24a" stroke-opacity="0.18"/>

  <g class="font">
    <g transform="translate(74 54)">
      <rect width="56" height="56" rx="16" fill="#0b0905" stroke="#d4a24a" stroke-opacity="0.48"/>
      <path d="M28 10c1.2 9.3 8.5 16.6 17.8 17.8C36.5 29 29.2 36.3 28 45.6 26.8 36.3 19.5 29 10.2 27.8 19.5 26.6 26.8 19.3 28 10z" fill="url(#goldText)"/>
      <path d="M13 42c9.8-5.8 18.6-14.5 26.4-26.2" fill="none" stroke="#fff3d4" stroke-opacity="0.88" stroke-width="2.4" stroke-linecap="round"/>
    </g>
    <text x="144" y="77" font-size="32" font-weight="500" fill="#fff8e8">New <tspan fill="#f4d28a" font-weight="650">Reward</tspan></text>
    <text x="146" y="103" font-size="13" font-weight="700" letter-spacing="2.4" fill="#bca875">AI VISIBILITY WITH PROOF</text>
    <text x="74" y="177" font-size="66" font-weight="700" fill="#fff8e8" letter-spacing="-1">
      <tspan x="74" dy="0">Be the brand</tspan>
      <tspan x="74" dy="76" fill="url(#goldText)">Google and AI</tspan>
      <tspan x="74" dy="76">recommend.</tspan>
    </text>
    <text x="78" y="414" font-size="30" font-weight="700" fill="#f4d28a">Get found. Get trusted. Get chosen.</text>
    <text x="78" y="460" class="body" fill="#d7d0bd">and show you weekly improvements</text>
    <g transform="translate(78 538)">
      <rect width="300" height="54" rx="27" fill="#d4a24a"/>
      <text x="26" y="35" font-size="19" font-weight="800" fill="#151006">Get your free score</text>
      <path d="M260 19l11 8-11 8M271 27h-32" fill="none" stroke="#151006" stroke-width="3" stroke-linecap="round" stroke-linejoin="round"/>
    </g>
  </g>

  <g class="font" filter="url(#softShadow)">
    <rect x="724" y="72" width="392" height="450" rx="28" fill="#050403" fill-opacity="0.58" stroke="#d4a24a" stroke-opacity="0.26"/>
    <text x="754" y="112" class="smallCaps" fill="#bca875">Scored Across</text>

    <g transform="translate(754 136)">
      <rect width="162" height="56" rx="18" fill="url(#chipFill)" stroke="#d4a24a" stroke-opacity="0.24"/>
      <svg x="17" y="15" width="26" height="26" viewBox="0 0 24 24">
        <path fill="#4285F4" d="M23.52 12.27c0-.82-.07-1.6-.21-2.36H12v4.46h6.47a5.53 5.53 0 0 1-2.4 3.63v3h3.88c2.27-2.09 3.57-5.17 3.57-8.73z"/>
        <path fill="#34A853" d="M12 24c3.24 0 5.96-1.08 7.95-2.9l-3.88-3.01c-1.08.72-2.45 1.16-4.07 1.16-3.13 0-5.78-2.11-6.73-4.96H1.27v3.11A12 12 0 0 0 12 24z"/>
        <path fill="#FBBC05" d="M5.27 14.29a7.2 7.2 0 0 1 0-4.58V6.6H1.27a12 12 0 0 0 0 10.8l4-3.11z"/>
        <path fill="#EA4335" d="M12 4.77c1.77 0 3.35.61 4.6 1.8l3.43-3.43A11.96 11.96 0 0 0 12 0 12 12 0 0 0 1.27 6.6l4 3.11C6.22 6.88 8.87 4.77 12 4.77z"/>
      </svg>
      <text x="56" y="30" class="chipText">Google</text>
      <text x="56" y="44" class="chipSub">SEARCH</text>
    </g>

    <g transform="translate(934 136)">
      <rect width="162" height="56" rx="18" fill="url(#chipFill)" stroke="#d4a24a" stroke-opacity="0.24"/>
      <path d="M31 14c.45 5.6 4.9 10.05 10.5 10.5C35.9 24.95 31.45 29.4 31 35c-.45-5.6-4.9-10.05-10.5-10.5C26.1 24.05 30.55 19.6 31 14z" fill="url(#geminiGradient)"/>
      <text x="56" y="30" class="chipText">AI</text>
      <text x="56" y="44" class="chipSub">OVERVIEWS</text>
    </g>

    <g transform="translate(754 214)">
      <rect width="162" height="56" rx="18" fill="url(#chipFill)" stroke="#d4a24a" stroke-opacity="0.24"/>
      <svg x="17" y="15" width="26" height="26" viewBox="0 0 24 24" fill="#0fa37f">
        <path d="M22.28 9.82a5.99 5.99 0 0 0-.52-4.91 6.05 6.05 0 0 0-6.52-2.9A6.07 6.07 0 0 0 4.98 4.18a5.99 5.99 0 0 0-3.99 2.9 6.05 6.05 0 0 0 .74 7.1 5.99 5.99 0 0 0 .52 4.91 6.05 6.05 0 0 0 6.51 2.9A5.98 5.98 0 0 0 13.26 24a6.06 6.06 0 0 0 5.77-4.2 5.99 5.99 0 0 0 4-2.9 6.06 6.06 0 0 0-.75-7.08zM13.26 22.43a4.49 4.49 0 0 1-2.88-1.04l.14-.08 4.78-2.76a.78.78 0 0 0 .39-.68v-6.74l2.02 1.17a.07.07 0 0 1 .04.06v5.58a4.5 4.5 0 0 1-4.49 4.49zM3.6 18.3a4.5 4.5 0 0 1-.54-3.02l.14.09 4.78 2.76a.78.78 0 0 0 .78 0l5.84-3.37v2.33a.08.08 0 0 1-.03.06L9.74 19.95A4.5 4.5 0 0 1 3.6 18.3zM2.34 7.9a4.49 4.49 0 0 1 2.35-1.98v5.69a.78.78 0 0 0 .38.67l5.83 3.36-2.02 1.18a.08.08 0 0 1-.07 0L4 14.05A4.5 4.5 0 0 1 2.34 7.9zm16.6 3.86-5.83-3.39 2.02-1.16a.08.08 0 0 1 .07 0l4.83 2.79a4.5 4.5 0 0 1-.68 8.12v-5.69a.78.78 0 0 0-.39-.67zm2.01-3.03-.14-.08-4.77-2.79a.78.78 0 0 0-.79 0l-5.83 3.37V6.87a.07.07 0 0 1 .03-.06l4.83-2.78a4.5 4.5 0 0 1 6.67 4.66zM8.21 12.96l-2.02-1.17a.08.08 0 0 1-.04-.06V6.16a4.5 4.5 0 0 1 7.38-3.45l-.14.08-4.78 2.76a.78.78 0 0 0-.39.68zm1.1-2.37 2.6-1.5 2.6 1.5v3l-2.6 1.5-2.6-1.5z"/>
      </svg>
      <text x="56" y="30" class="chipText">ChatGPT</text>
      <text x="56" y="44" class="chipSub">ANSWERS</text>
    </g>

    <g transform="translate(934 214)">
      <rect width="162" height="56" rx="18" fill="url(#chipFill)" stroke="#d4a24a" stroke-opacity="0.24"/>
      <path d="M30 14c.45 5.6 4.9 10.05 10.5 10.5C34.9 24.95 30.45 29.4 30 35c-.45-5.6-4.9-10.05-10.5-10.5C25.1 24.05 29.55 19.6 30 14z" fill="url(#geminiGradient)"/>
      <text x="56" y="30" class="chipText">Gemini</text>
      <text x="56" y="44" class="chipSub">GOOGLE AI</text>
    </g>

    <g transform="translate(754 292)">
      <rect width="162" height="56" rx="18" fill="url(#chipFill)" stroke="#d4a24a" stroke-opacity="0.24"/>
      <svg x="17" y="15" width="26" height="26" viewBox="0 0 24 24" fill="#d97757">
        <path d="M22 12l-7.49.67L20.66 17l-6.82-3.84L17 20.66l-4.33-6.15L12 22l-.67-7.49L7 20.66l3.84-6.82L3.34 17l6.15-4.33L2 12l7.49-.67L3.34 7l6.82 3.84L7 3.34l4.33 6.15L12 2l.67 7.49L17 3.34l-3.84 6.82L20.66 7l-6.15 4.33z"/>
      </svg>
      <text x="56" y="30" class="chipText">Claude</text>
      <text x="56" y="44" class="chipSub">ANTHROPIC</text>
    </g>

    <g transform="translate(934 292)">
      <rect width="162" height="56" rx="18" fill="url(#chipFill)" stroke="#d4a24a" stroke-opacity="0.24"/>
      <image href="og-symbol-perplexity.png" x="15" y="13" width="30" height="30" preserveAspectRatio="xMidYMid meet"/>
      <text x="56" y="30" class="chipText">Perplexity</text>
      <text x="56" y="44" class="chipSub">CITATIONS</text>
    </g>

    <g transform="translate(844 370)">
      <rect width="162" height="56" rx="18" fill="url(#chipFill)" stroke="#d4a24a" stroke-opacity="0.24"/>
      <image href="og-symbol-grok.png" x="15" y="13" width="30" height="30" preserveAspectRatio="xMidYMid meet"/>
      <text x="56" y="30" class="chipText">Grok</text>
      <text x="56" y="44" class="chipSub">XAI SEARCH</text>
    </g>

    <text x="754" y="480" font-size="18" font-weight="600" fill="#d7d0bd">One visibility system for every answer surface.</text>
  </g>
</svg>
